<svg width="157" height="36" viewBox="0 0 157 36" fill="none" xmlns="http://www.w3.org/2000/svg">
<path d="M26.63 28L32.63 7H38.33L44.3 28H40.97L39.59 23.05H31.37L29.99 28H26.63ZM32.18 20.05H38.78L35.72 9.01H35.24L32.18 20.05ZM54.1679 28.42C52.5879 28.42 51.1879 28.14 49.9679 27.58C48.7479 27.02 47.7879 26.2 47.0879 25.12C46.4079 24.02 46.0679 22.69 46.0679 21.13V20.38H49.2779V21.13C49.2779 22.61 49.7179 23.72 50.5979 24.46C51.4979 25.2 52.6879 25.57 54.1679 25.57C55.6679 25.57 56.7979 25.26 57.5579 24.64C58.3179 24 58.6979 23.18 58.6979 22.18C58.6979 21.52 58.5179 20.98 58.1579 20.56C57.7979 20.14 57.2879 19.81 56.6279 19.57C55.9679 19.31 55.1779 19.07 54.2579 18.85L53.1479 18.58C51.8079 18.26 50.6379 17.87 49.6379 17.41C48.6579 16.93 47.8979 16.3 47.3579 15.52C46.8179 14.74 46.5479 13.74 46.5479 12.52C46.5479 11.28 46.8479 10.22 47.4479 9.34C48.0679 8.46 48.9179 7.78 49.9979 7.3C51.0779 6.82 52.3479 6.58 53.8079 6.58C55.2679 6.58 56.5679 6.83 57.7079 7.33C58.8679 7.83 59.7779 8.57 60.4379 9.55C61.0979 10.53 61.4279 11.76 61.4279 13.24V14.32H58.2179V13.24C58.2179 12.34 58.0279 11.61 57.6479 11.05C57.2879 10.49 56.7779 10.08 56.1179 9.82C55.4579 9.56 54.6879 9.43 53.8079 9.43C52.5279 9.43 51.5279 9.7 50.8079 10.24C50.1079 10.76 49.7579 11.49 49.7579 12.43C49.7579 13.07 49.9079 13.6 50.2079 14.02C50.5279 14.42 50.9879 14.75 51.5879 15.01C52.1879 15.27 52.9379 15.5 53.8379 15.7L54.9479 15.97C56.3079 16.27 57.5079 16.66 58.5479 17.14C59.5879 17.6 60.4079 18.23 61.0079 19.03C61.6079 19.83 61.9079 20.86 61.9079 22.12C61.9079 23.38 61.5879 24.48 60.9479 25.42C60.3279 26.36 59.4379 27.1 58.2779 27.64C57.1179 28.16 55.7479 28.42 54.1679 28.42ZM69.323 28V9.94H62.873V7H79.013V9.94H72.563V28H69.323ZM81.9498 28V7H90.7698C92.0698 7 93.2098 7.23 94.1898 7.69C95.1898 8.13 95.9598 8.77 96.4998 9.61C97.0598 10.45 97.3398 11.45 97.3398 12.61V12.94C97.3398 14.26 97.0198 15.32 96.3798 16.12C95.7598 16.9 94.9998 17.45 94.0998 17.77V18.25C94.8598 18.29 95.4698 18.55 95.9298 19.03C96.3898 19.49 96.6198 20.16 96.6198 21.04V28H93.3498V21.49C93.3498 20.95 93.2098 20.52 92.9298 20.2C92.6498 19.88 92.1998 19.72 91.5798 19.72H85.1898V28H81.9498ZM85.1898 16.78H90.4098C91.5698 16.78 92.4698 16.49 93.1098 15.91C93.7498 15.31 94.0698 14.5 94.0698 13.48V13.24C94.0698 12.22 93.7498 11.42 93.1098 10.84C92.4898 10.24 91.5898 9.94 90.4098 9.94H85.1898V16.78ZM108.795 28.42C106.215 28.42 104.165 27.7 102.645 26.26C101.125 24.8 100.365 22.7 100.365 19.96V15.04C100.365 12.3 101.125 10.21 102.645 8.77C104.165 7.31 106.215 6.58 108.795 6.58C111.375 6.58 113.425 7.31 114.945 8.77C116.485 10.21 117.255 12.3 117.255 15.04V19.96C117.255 22.7 116.485 24.8 114.945 26.26C113.425 27.7 111.375 28.42 108.795 28.42ZM108.795 25.51C110.455 25.51 111.735 25.03 112.635 24.07C113.535 23.09 113.985 21.76 113.985 20.08V14.92C113.985 13.24 113.535 11.92 112.635 10.96C111.735 9.98 110.455 9.49 108.795 9.49C107.175 9.49 105.905 9.98 104.985 10.96C104.065 11.92 103.605 13.24 103.605 14.92V20.08C103.605 21.76 104.065 23.09 104.985 24.07C105.905 25.03 107.175 25.51 108.795 25.51ZM119.519 28V25.12H122.339V9.88H119.519V7H127.919C130.719 7 132.859 7.71 134.339 9.13C135.839 10.55 136.589 12.69 136.589 15.55V19.48C136.589 22.34 135.839 24.48 134.339 25.9C132.859 27.3 130.719 28 127.919 28H119.519ZM125.609 25.06H127.949C129.769 25.06 131.119 24.6 131.999 23.68C132.879 22.76 133.319 21.39 133.319 19.57V15.43C133.319 13.59 132.879 12.22 131.999 11.32C131.119 10.42 129.769 9.97 127.949 9.97H125.609V25.06ZM138.368 28L144.368 7H150.068L156.038 28H152.708L151.328 23.05H143.108L141.728 28H138.368ZM143.918 20.05H150.518L147.458 9.01H146.978L143.918 20.05Z" fill="white"/>
<path d="M11.9148 16.3807C11.0052 16.0506 10.1791 15.4985 9.50128 14.7678C8.82346 14.0371 8.31238 13.1476 8.0081 12.1691C7.90287 11.8287 7.70059 11.5326 7.42994 11.3228C7.15929 11.1129 6.83401 11 6.50026 11C6.16652 11 5.84124 11.1129 5.57059 11.3228C5.29994 11.5326 5.09766 11.8287 4.99243 12.1691C4.68792 13.1476 4.17669 14.037 3.4988 14.7677C2.82092 15.4984 1.99479 16.0505 1.08515 16.3807C0.769096 16.4942 0.494258 16.7117 0.29952 17.0023C0.104781 17.2929 0 17.6419 0 18C0 18.3581 0.104781 18.7071 0.29952 18.9977C0.494258 19.2883 0.769096 19.5058 1.08515 19.6193C1.9948 19.9495 2.82094 20.5016 3.49882 21.2323C4.17671 21.963 4.68793 22.8524 4.99243 23.8309C5.09766 24.1713 5.29994 24.4674 5.57059 24.6772C5.84124 24.8871 6.16652 25 6.50026 25C6.83401 25 7.15929 24.8871 7.42994 24.6772C7.70059 24.4674 7.90287 24.1713 8.0081 23.8309C8.31238 22.8524 8.82346 21.9629 9.50128 21.2322C10.1791 20.5015 11.0052 19.9494 11.9148 19.6193C12.2309 19.5058 12.5057 19.2883 12.7005 18.9977C12.8952 18.7071 13 18.3581 13 18C13 17.6419 12.8952 17.2929 12.7005 17.0023C12.5057 16.7117 12.2309 16.4942 11.9148 16.3807ZM6.5 19.7386C6.02916 19.0915 5.48722 18.508 4.88598 18.0007C5.48734 17.4937 6.0293 16.9103 6.5 16.2632C6.9707 16.9103 7.51266 17.4937 8.11402 18.0007C7.51283 18.5077 6.97089 19.0909 6.5 19.7377V19.7386Z" fill="white"/>
</svg>
